<?xml version="1.0" encoding="UTF-8"?>
<svg id="Layer_1" data-name="Layer 1" xmlns="http://www.w3.org/2000/svg" viewBox="0 0 1504 1504">
  <defs>
    <style>
      .cls-1 {
        fill: #00162e;
      }

      .cls-2 {
        fill: #f3fbff;
      }

      .cls-3 {
        fill: #ffbb29;
      }

      .cls-4 {
        fill: none;
      }
    </style>
  </defs>
  <rect class="cls-1" width="1504" height="1504"/>
  <circle class="cls-3" cx="749.5" cy="750.5" r="362.5"/>
  <path class="cls-2" d="M1255.18,184.46c14.52,44.66,22.32,92.01,22.32,141.05,0,270.08-236.62,489.02-528.5,489.02S220.5,595.59,220.5,325.51c0-49.04,7.81-96.39,22.32-141.05-31.68,64.65-49.32,136.44-49.32,212.04,0,283.87,248.71,542.5,555.5,542.5s555.5-258.63,555.5-542.5c0-75.6-17.64-147.39-49.32-212.04Z"/>
  <circle class="cls-1" cx="1112" cy="721" r="150"/>
  <g>
    <path class="cls-4" d="M1262,1082.93c0-4.01-.06-7.99-.17-11.93h-71.83v188.95c39.81-.66,72-79.65,72-177.02Z"/>
    <path class="cls-4" d="M1334.5,1259.97c.17,0,.33-.01,.5-.02v-188.95h-72.83c-.11,3.95-.17,7.92-.17,11.93,0,97.77,32.46,177.03,72.5,177.03Z"/>
    <path class="cls-4" d="M1335,1259.98c-.17,0-.33-.02-.5-.02-40.04,0-72.5,79.26-72.5,177.03h73v-177.02Z"/>
    <path class="cls-4" d="M1190,1259.98v177.02h72c0-97.36-32.19-176.36-72-177.02Z"/>
    <path class="cls-2" d="M1262.17,1071h-.34c.11,3.95,.17,7.92,.17,11.93,0-4.01,.06-7.99,.17-11.93Z"/>
    <path class="cls-2" d="M1334.5,1259.97c-40.04,0-72.5-79.26-72.5-177.03,0,97.36-32.19,176.36-72,177.02v.03c39.81,.66,72,79.65,72,177.02,0-97.77,32.46-177.03,72.5-177.03Z"/>
    <path class="cls-2" d="M1335,1259.98v-.03c-.17,0-.33,.02-.5,.02,.17,0,.33,.01,.5,.02Z"/>
  </g>
  <g>
    <path class="cls-4" d="M193.12,948.84c0-3.02-.05-6.01-.13-8.97h-54v142.04c29.93-.49,54.12-59.88,54.12-133.07Z"/>
    <path class="cls-4" d="M247.62,1081.92c.13,0,.25,0,.38-.01v-142.04h-54.75c-.08,2.97-.13,5.96-.13,8.97,0,73.5,24.4,133.08,54.5,133.08Z"/>
    <path class="cls-4" d="M248,1081.93c-.13,0-.25-.01-.38-.01-30.1,0-54.5,59.58-54.5,133.08h54.88v-133.07Z"/>
    <path class="cls-4" d="M139,1081.93v133.07h54.12c0-73.19-24.2-132.57-54.12-133.07Z"/>
    <path class="cls-2" d="M193.25,939.87h-.25c.08,2.97,.13,5.96,.13,8.97,0-3.02,.05-6.01,.13-8.97Z"/>
    <path class="cls-2" d="M247.62,1081.92c-30.1,0-54.5-59.58-54.5-133.08,0,73.19-24.2,132.57-54.12,133.07v.02c29.93,.49,54.12,59.88,54.12,133.07,0-73.5,24.4-133.08,54.5-133.08Z"/>
    <path class="cls-2" d="M248,1081.93v-.02c-.13,0-.25,.01-.38,.01,.13,0,.25,0,.38,.01Z"/>
  </g>
  <g>
    <path class="cls-4" d="M496.23,1244.5c0-2.19-.03-4.35-.09-6.5h-39.14v102.95c21.69-.36,39.23-43.4,39.23-96.44Z"/>
    <path class="cls-4" d="M535.73,1340.95c.09,0,.18,0,.27,0v-102.95h-39.68c-.06,2.15-.09,4.32-.09,6.5,0,53.27,17.68,96.45,39.5,96.45Z"/>
    <path class="cls-4" d="M536,1340.96c-.09,0-.18,0-.27,0-21.82,0-39.5,43.18-39.5,96.45h39.77v-96.44Z"/>
    <path class="cls-4" d="M457,1340.96v96.44h39.23c0-53.05-17.54-96.09-39.23-96.44Z"/>
    <path class="cls-2" d="M496.32,1238h-.18c.06,2.15,.09,4.32,.09,6.5,0-2.19,.03-4.35,.09-6.5Z"/>
    <path class="cls-2" d="M535.73,1340.95c-21.82,0-39.5-43.18-39.5-96.45,0,53.05-17.54,96.09-39.23,96.44v.02c21.69,.36,39.23,43.4,39.23,96.44,0-53.27,17.68-96.45,39.5-96.45Z"/>
    <path class="cls-2" d="M536,1340.96v-.02c-.09,0-.18,0-.27,0,.09,0,.18,0,.27,0Z"/>
  </g>
</svg>